<?xml version="1.0" encoding="UTF-8"?>
<svg version="1.1" xmlns="http://www.w3.org/2000/svg" width="118" height="135">
<path d="M0 0 C0.495 0.99 0.495 0.99 1 2 C1.66 2 2.32 2 3 2 C3.33 1.34 3.66 0.68 4 0 C14.98716174 5.94707781 25.88811369 12.03022935 36.6875 18.3125 C37.6775 18.88629395 38.6675 19.46008789 39.6875 20.05126953 C44.19604155 22.68608196 48.67628117 25.36414975 53.08203125 28.16796875 C53.79206299 28.61809326 54.50209473 29.06821777 55.23364258 29.53198242 C57.35888791 31.29827132 58.00897523 32.40987481 59 35 C59.24723816 38.31243896 59.24723816 38.31243896 59.24291992 42.30371094 C59.24481827 43.03271606 59.24671661 43.76172119 59.24867249 44.51281738 C59.25237329 46.92011311 59.24168154 49.32710611 59.23046875 51.734375 C59.22927586 53.41343144 59.22882402 55.09248856 59.2290802 56.77154541 C59.22751624 60.29207535 59.21923661 63.81250349 59.20581055 67.33300781 C59.18887329 71.8295963 59.18499487 76.32607241 59.18575573 80.82268906 C59.18548269 84.29210468 59.17997925 87.7614961 59.17275429 91.23090363 C59.16958707 92.88777737 59.1676048 94.54465385 59.16686058 96.20153046 C59.16467323 98.52730391 59.15587663 100.85296252 59.14526367 103.17871094 C59.14571686 103.85432068 59.14617004 104.52993042 59.14663696 105.22601318 C59.06647403 117.3433927 59.06647403 117.3433927 56.42578125 121.4453125 C51.00455131 124.91978837 44.08313109 124.16840628 38 123 C34.44928666 120.36822127 32.99534922 116.87783932 31 113 C29.07411962 109.92322024 27.06252038 106.90392713 25.0625 103.875 C24.09268944 102.37391965 23.12505557 100.87142952 22.16015625 99.3671875 C21.53572632 98.39434814 21.53572632 98.39434814 20.89868164 97.40185547 C20.6021167 96.93924316 20.30555176 96.47663086 20 96 C19.99589111 96.64026123 19.99178223 97.28052246 19.98754883 97.94018555 C19.95453962 100.85687905 19.88388974 103.77150384 19.8125 106.6875 C19.80379883 108.19860352 19.80379883 108.19860352 19.79492188 109.74023438 C19.75141602 111.20493164 19.75141602 111.20493164 19.70703125 112.69921875 C19.6913208 113.59471436 19.67561035 114.49020996 19.65942383 115.4128418 C18.70724972 119.14856523 17.01016069 120.64940353 14 123 C9.31448623 124.25481527 4.52135348 124.26243582 -0.3125 124.3125 C-0.98518921 124.32546112 -1.65787842 124.33842224 -2.35095215 124.35177612 C-10.94155194 124.41556516 -17.2979771 123.3974825 -23.72338867 117.31518555 C-26.24343388 114.51402218 -28.60864035 111.66248692 -30.78027344 108.58227539 C-31.92971035 106.8537498 -31.92971035 106.8537498 -34 106 C-34.03738281 106.73605469 -34.07476562 107.47210938 -34.11328125 108.23046875 C-34.7806841 118.13682093 -34.7806841 118.13682093 -38 122 C-41.06533164 123.53266582 -44.26754272 123.10276471 -47.625 123.0625 C-48.33140625 123.05798828 -49.0378125 123.05347656 -49.765625 123.04882812 C-51.51045275 123.03703875 -53.255237 123.01910324 -55 123 C-55.1158425 111.351918 -55.20468957 99.70397301 -55.25906086 88.05543232 C-55.28515629 82.64652983 -55.3205539 77.23802139 -55.37719727 71.8293457 C-55.43151815 66.60978001 -55.46142094 61.39059337 -55.47438622 56.17076683 C-55.4836259 54.17921163 -55.50166901 52.1876772 -55.52865028 50.19628334 C-55.56494159 47.40684789 -55.56994532 44.6189792 -55.56762695 41.8293457 C-55.58560333 41.00575562 -55.60357971 40.18216553 -55.62210083 39.33361816 C-55.5837332 35.06806496 -55.39798579 33.49398904 -52.62657166 30.05404663 C-50.04047663 28.03165377 -47.52339445 26.36910755 -44.640625 24.80078125 C-43.61509521 24.23601074 -42.58956543 23.67124023 -41.53295898 23.08935547 C-40.44958252 22.50299316 -39.36620605 21.91663086 -38.25 21.3125 C-35.99525101 20.07314654 -33.74134739 18.8322539 -31.48828125 17.58984375 C-30.38436035 16.98253418 -29.28043945 16.37522461 -28.14306641 15.74951172 C-23.19679056 12.99628718 -18.32936038 10.11552494 -13.47949219 7.1965332 C-9.08466455 4.57014448 -4.60121589 2.24722367 0 0 Z M1 3 C0.32282228 5.28547481 0.00199995 7.03899903 0.125 9.4375 C-0.03943745 12.80846768 -1.03892247 14.24796813 -3 17 C-5.03715292 18.68322895 -7.03999705 20.22697435 -9.1875 21.75 C-13.23800696 24.71273244 -16.61229518 27.48514927 -19.6875 31.5 C-24.96804494 37.85912433 -32.65480952 41.06782251 -39.84570312 44.84960938 C-42.81444089 46.43490996 -45.69220564 48.11675686 -48.5625 49.875 C-49.40941406 50.38804688 -50.25632812 50.90109375 -51.12890625 51.4296875 C-53.26995151 53.22655638 -53.66295878 54.26819224 -54 57 C-52.72769531 56.27296875 -52.72769531 56.27296875 -51.4296875 55.53125 C-42.953125 50.6875 -34.4765625 45.84375 -26 41 C-26.08733973 43.08410658 -26.19552278 45.16734669 -26.3125 47.25 C-26.37050781 48.41015625 -26.42851562 49.5703125 -26.48828125 50.765625 C-27.02417505 54.1528011 -27.82001878 55.4518182 -30 58 C-30 58.66 -30 59.32 -30 60 C-30.96873047 60.34611328 -30.96873047 60.34611328 -31.95703125 60.69921875 C-36.04589206 62.44708865 -39.83746031 64.59521675 -43.6875 66.8125 C-44.45900391 67.23853516 -45.23050781 67.66457031 -46.02539062 68.10351562 C-50.53863372 70.674286 -50.53863372 70.674286 -53.51953125 74.82421875 C-53.67808594 75.54222656 -53.83664063 76.26023437 -54 77 C-52.82244141 76.31164062 -52.82244141 76.31164062 -51.62109375 75.609375 C-46.0944918 72.38156822 -40.56467841 69.1617491 -35 66 C-35 71.28 -35 76.56 -35 82 C-31.30709837 78.30709837 -27.91266331 74.63755406 -24.55078125 70.671875 C-22.75978627 68.74102903 -21.72433353 68.05585561 -19.0914917 67.85282898 C-18.31460999 67.84298477 -17.53772827 67.83314056 -16.73730469 67.82299805 C-15.85588806 67.81016281 -14.97447144 67.79732758 -14.06634521 67.78410339 C-13.11117004 67.77671646 -12.15599487 67.76932953 -11.171875 67.76171875 C-9.69923187 67.74961113 -9.69923187 67.74961113 -8.19683838 67.73725891 C-6.11545582 67.72341208 -4.0340505 67.71269261 -1.95263672 67.70483398 C1.22342298 67.68764385 4.39843574 67.64376544 7.57421875 67.59960938 C9.59634651 67.5894805 11.61848312 67.58096501 13.640625 67.57421875 C14.58770325 67.55671066 15.53478149 67.53920258 16.51055908 67.52116394 C22.19801967 67.53977533 25.50914711 68.16004628 30 72 C32.30078125 74.578125 32.30078125 74.578125 34.3125 77.25 C35.52400927 78.8468846 36.74819823 80.43450089 38 82 C38.33 82 38.66 82 39 82 C39 76.72 39 71.44 39 66 C41.43804479 67.45742899 43.87545275 68.91590468 46.3125 70.375 C47.00279297 70.7875 47.69308594 71.2 48.40429688 71.625 C49.07138672 72.02460937 49.73847656 72.42421875 50.42578125 72.8359375 C51.03848877 73.20251465 51.65119629 73.5690918 52.2824707 73.94677734 C53.87927115 74.9259667 55.44146886 75.96097924 57 77 C56.69426259 74.14645081 56.13782909 73.12551814 53.98828125 71.16796875 C49.57928791 67.96928731 44.83801686 65.40842222 40.0625 62.79882812 C35.73924058 60.34518879 33.30138356 58.56196245 31 54 C30.34 54 29.68 54 29 54 C29.01160156 53.15695313 29.02320312 52.31390625 29.03515625 51.4453125 C29.04417969 50.34960938 29.05320312 49.25390625 29.0625 48.125 C29.07410156 47.03445312 29.08570312 45.94390625 29.09765625 44.8203125 C29.19744303 42.04822454 29.19744303 42.04822454 28 40 C28.77190674 40.44915771 29.54381348 40.89831543 30.33911133 41.36108398 C33.20600296 43.02752005 36.0743069 44.69147073 38.94360352 46.35375977 C40.18473847 47.07347212 41.42530363 47.79416802 42.6652832 48.51586914 C44.44853922 49.55354275 46.23381997 50.58765249 48.01953125 51.62109375 C49.09307861 52.2442749 50.16662598 52.86745605 51.27270508 53.50952148 C53.9710694 55.08894536 53.9710694 55.08894536 57 56 C55.52946712 52.19842303 53.65999632 50.87481053 50.16796875 48.87109375 C48.72260742 48.03094727 48.72260742 48.03094727 47.24804688 47.17382812 C46.23806641 46.60083984 45.22808594 46.02785156 44.1875 45.4375 C43.18912109 44.86064453 42.19074219 44.28378906 41.16210938 43.68945312 C39.29602367 42.61157418 37.42739178 41.53808262 35.55541992 40.47045898 C33.78357419 39.45089016 32.03202977 38.39553246 30.2980957 37.31274414 C28.15166258 35.8346634 28.15166258 35.8346634 26 36 C25.76667969 35.2678125 25.53335938 34.535625 25.29296875 33.78125 C23.76926881 30.50368397 22.03155676 28.86512135 19.3125 26.5 C18.42046875 25.72140625 17.5284375 24.9428125 16.609375 24.140625 C14.47682284 22.39116604 12.34534903 20.79141089 10.0625 19.25 C6.93505192 16.95228304 5.44686152 15.57459906 4 12 C4 9.66666667 4 7.33333333 4 5 C3.01 4.34 2.02 3.68 1 3 Z M-2 74 C-3.08571784 75.21136471 -4.13157614 76.45850771 -5.16015625 77.71875 C-5.78857422 78.48574219 -6.41699219 79.25273438 -7.06445312 80.04296875 C-8.05348633 81.25919922 -8.05348633 81.25919922 -9.0625 82.5 C-9.72572266 83.31082031 -10.38894531 84.12164062 -11.07226562 84.95703125 C-12.71751042 86.96920115 -14.35994178 88.9836022 -16 91 C-14.12167087 95.15086864 -11.29333973 97.75918144 -7.9375 100.75 C-7.38255859 101.25660156 -6.82761719 101.76320313 -6.25585938 102.28515625 C-3.95099533 104.84615567 -3.95099533 104.84615567 -1 106 C-1 95.44 -1 84.88 -1 74 C-1.33 74 -1.66 74 -2 74 Z " fill="#037CD0" transform="translate(57,3)"/>
<path d="M0 0 C0.495 0.99 0.495 0.99 1 2 C1.66 2 2.32 2 3 2 C3.33 1.34 3.66 0.68 4 0 C14.98716174 5.94707781 25.88811369 12.03022935 36.6875 18.3125 C37.6775 18.88629395 38.6675 19.46008789 39.6875 20.05126953 C44.19604155 22.68608196 48.67628117 25.36414975 53.08203125 28.16796875 C53.79206299 28.61809326 54.50209473 29.06821777 55.23364258 29.53198242 C57.78938653 31.65605822 58.8640302 33.80517036 59.24050903 37.11346436 C59.23606781 37.86847229 59.23162659 38.62348022 59.22705078 39.40136719 C59.22689972 40.2619574 59.22674866 41.12254761 59.22659302 42.00921631 C59.21627045 42.92914368 59.20594788 43.84907104 59.1953125 44.796875 C59.1924826 45.74564514 59.18965271 46.69441528 59.18673706 47.67193604 C59.17555448 50.69808639 59.1504533 53.7239393 59.125 56.75 C59.11496772 58.80338114 59.1058423 60.85676692 59.09765625 62.91015625 C59.07562141 67.94021854 59.04110462 72.97005886 59 78 C57 77 57 77 55.66015625 74.62109375 C53.81994832 71.71573017 52.41538233 70.71156806 49.4375 69.0625 C48.55835937 68.55976562 47.67921875 68.05703125 46.7734375 67.5390625 C45.40058594 66.77722656 45.40058594 66.77722656 44 66 C42.18108964 64.99063284 40.36829861 63.97014143 38.5625 62.9375 C37.35787109 62.27041016 37.35787109 62.27041016 36.12890625 61.58984375 C33.61016475 59.70887533 32.52951521 57.71566986 31 55 C30.34 54.67 29.68 54.34 29 54 C28.5859375 50.83984375 28.5859375 50.83984375 28.375 46.9375 C28.26285156 45.00197266 28.26285156 45.00197266 28.1484375 43.02734375 C28.09945312 42.02832031 28.05046875 41.02929688 28 40 C31.51297387 41.32902157 34.72129956 42.87943377 37.9765625 44.75 C38.894375 45.2759375 39.8121875 45.801875 40.7578125 46.34375 C41.70398438 46.8903125 42.65015625 47.436875 43.625 48 C44.57890625 48.5465625 45.5328125 49.093125 46.515625 49.65625 C50.07097811 51.69932615 53.58711974 53.72474649 57 56 C53.59108352 52.34252077 50.35098004 49.82570162 45.96484375 47.44140625 C44.82595703 46.80783203 43.68707031 46.17425781 42.51367188 45.52148438 C40.72372027 44.53798099 38.93142956 43.5592127 37.13549805 42.58666992 C35.38425657 41.63408074 33.64316268 40.66291143 31.90234375 39.69140625 C30.86585693 39.12623291 29.82937012 38.56105957 28.76147461 37.97875977 C25.57489896 35.69538998 24.04469881 33.3143552 22 30 C20.08086328 28.24453106 18.09772276 26.55695215 16.0625 24.9375 C11.15523874 21.01045022 6.50921337 17.26382005 3 12 C2.92094936 9.66800612 2.91201231 7.33167378 3 5 C2.34 5 1.68 5 1 5 C1.0825 6.03125 1.165 7.0625 1.25 8.125 C0.95038458 12.76903895 -0.16938055 14.35464634 -3 18 C-5.0620458 19.71564393 -7.06842735 21.27487221 -9.25 22.8125 C-13.28376201 25.75462968 -16.62655743 28.50592945 -19.6875 32.5 C-24.9739829 38.86857748 -32.68310877 42.1350737 -39.89746094 45.90136719 C-42.62516472 47.32666526 -45.32448279 48.79143336 -48 50.3125 C-48.7425 50.72113281 -49.485 51.12976562 -50.25 51.55078125 C-52.5009228 53.4148267 -53.11708085 55.25467328 -54 58 C-54.33 58 -54.66 58 -55 58 C-55.14547545 53.93787788 -55.23413226 49.87642713 -55.3125 45.8125 C-55.35439453 44.66201172 -55.39628906 43.51152344 -55.43945312 42.32617188 C-55.56147426 33.90671336 -55.56147426 33.90671336 -53.21484375 30.1171875 C-48.35990024 26.9198857 -43.36108205 24.07880142 -38.25 21.3125 C-35.99525101 20.07314654 -33.74134739 18.8322539 -31.48828125 17.58984375 C-30.38436035 16.98253418 -29.28043945 16.37522461 -28.14306641 15.74951172 C-23.19679056 12.99628718 -18.32936038 10.11552494 -13.47949219 7.1965332 C-9.08466455 4.57014448 -4.60121589 2.24722367 0 0 Z " fill="#87BD44" transform="translate(57,3)"/>
<path d="M0 0 C0.10914609 1.87367462 0.1861054 3.74923698 0.25 5.625 C0.29640625 6.66914063 0.3428125 7.71328125 0.390625 8.7890625 C-0.26442392 14.17356464 -2.8634724 17.05439701 -6.953125 20.45703125 C-8.04685253 21.2494578 -9.14603577 22.03439799 -10.25 22.8125 C-14.28376201 25.75462968 -17.62655743 28.50592945 -20.6875 32.5 C-25.9739829 38.86857748 -33.68310877 42.1350737 -40.89746094 45.90136719 C-43.62516472 47.32666526 -46.32448279 48.79143336 -49 50.3125 C-49.7425 50.72113281 -50.485 51.12976562 -51.25 51.55078125 C-53.5009228 53.4148267 -54.11708085 55.25467328 -55 58 C-55.33 58 -55.66 58 -56 58 C-56.14547545 53.93787788 -56.23413226 49.87642713 -56.3125 45.8125 C-56.35439453 44.66201172 -56.39628906 43.51152344 -56.43945312 42.32617188 C-56.56147426 33.90671336 -56.56147426 33.90671336 -54.21484375 30.1171875 C-49.35990024 26.9198857 -44.36108205 24.07880142 -39.25 21.3125 C-36.99525101 20.07314654 -34.74134739 18.8322539 -32.48828125 17.58984375 C-31.38436035 16.98253418 -30.28043945 16.37522461 -29.14306641 15.74951172 C-24.19679056 12.99628718 -19.32936038 10.11552494 -14.47949219 7.1965332 C-2.43728275 -0 -2.43728275 -0 0 0 Z " fill="#87BD43" transform="translate(58,3)"/>
<path d="M0 0 C5.50671448 2.09224472 10.45712937 4.96064059 15.5625 7.875 C16.50802734 8.40480469 17.45355469 8.93460938 18.42773438 9.48046875 C19.33974609 9.99996094 20.25175781 10.51945312 21.19140625 11.0546875 C22.01842041 11.52374512 22.84543457 11.99280273 23.69750977 12.47607422 C27.30702414 14.86506677 29.61769145 16.85307436 31 21 C31.07973476 22.33525717 31.10771338 23.67412083 31.09765625 25.01171875 C31.09443359 25.76904297 31.09121094 26.52636719 31.08789062 27.30664062 C31.07951172 28.09232422 31.07113281 28.87800781 31.0625 29.6875 C31.05798828 30.48478516 31.05347656 31.28207031 31.04882812 32.10351562 C31.0370585 34.06904257 31.01912348 36.03453085 31 38 C29 37 29 37 27.66015625 34.62109375 C25.81994832 31.71573017 24.41538233 30.71156806 21.4375 29.0625 C20.55835937 28.55976562 19.67921875 28.05703125 18.7734375 27.5390625 C17.85820313 27.03117187 16.94296875 26.52328125 16 26 C14.18108964 24.99063284 12.36829861 23.97014143 10.5625 22.9375 C9.75941406 22.49277344 8.95632812 22.04804687 8.12890625 21.58984375 C5.61016475 19.70887533 4.52951521 17.71566986 3 15 C2.34 14.67 1.68 14.34 1 14 C0.5859375 10.83984375 0.5859375 10.83984375 0.375 6.9375 C0.30023438 5.64714844 0.22546875 4.35679688 0.1484375 3.02734375 C0.09945312 2.02832031 0.05046875 1.02929688 0 0 Z " fill="#057CCF" transform="translate(85,43)"/>
<path d="M0 0 C14.85 0 29.7 0 45 0 C44.67 0.66 44.34 1.32 44 2 C10.93853576 3.58876602 10.93853576 3.58876602 2 2 C1.34 1.34 0.68 0.68 0 0 Z " fill="#1278B5" transform="translate(36,70)"/>
<path d="M0 0 C0.33 0 0.66 0 1 0 C1.05416741 2.72943537 1.09375225 5.45778564 1.125 8.1875 C1.15013672 9.34088867 1.15013672 9.34088867 1.17578125 10.51757812 C1.21266851 14.8149434 0.9958504 18.07901831 -1 22 C-1.33 22 -1.66 22 -2 22 C-2.05807043 18.89591193 -2.09361914 15.7919636 -2.125 12.6875 C-2.14175781 11.80642578 -2.15851562 10.92535156 -2.17578125 10.01757812 C-2.18222656 9.17001953 -2.18867187 8.32246094 -2.1953125 7.44921875 C-2.20578613 6.66893311 -2.21625977 5.88864746 -2.22705078 5.0847168 C-2 3 -2 3 0 0 Z " fill="#1976B5" transform="translate(4,59)"/>
<path d="M0 0 C0 3 0 3 -1.625 5.0625 C-4.36120887 7.29467039 -6.57257593 8.19783692 -10 9 C-10.99 8.67 -11.98 8.34 -13 8 C-10.20375042 5.81302498 -7.36692128 4.00847187 -4.25 2.3125 C-3.45078125 1.87550781 -2.6515625 1.43851563 -1.828125 0.98828125 C-1.22484375 0.66214844 -0.6215625 0.33601563 0 0 Z " fill="#90B850" transform="translate(32,17)"/>
<path d="M0 0 C5 2 5 2 7 4 C6.01 4.66 5.02 5.32 4 6 C3.42251197 7.96361864 3.42251197 7.96361864 3.3125 10.125 C3.209375 11.40375 3.10625 12.6825 3 14 C2.34 14 1.68 14 1 14 C0.67 9.38 0.34 4.76 0 0 Z " fill="#0F76C3" transform="translate(85,43)"/>
<path d="M0 0 C0 3.96 0 7.92 0 12 C-0.99 12.495 -0.99 12.495 -2 13 C-2.33 10.03 -2.66 7.06 -3 4 C-4.32 3.67 -5.64 3.34 -7 3 C-1.125 0 -1.125 0 0 0 Z " fill="#8FB950" transform="translate(58,3)"/>
<path d="M0 0 C0 2.31 0 4.62 0 7 C-0.33 6.34 -0.66 5.68 -1 5 C-5.455 5.495 -5.455 5.495 -10 6 C-2.8 0 -2.8 0 0 0 Z " fill="#1A78B8" transform="translate(32,43)"/>
<path d="M0 0 C0.66 0.33 1.32 0.66 2 1 C2 1.66 2 2.32 2 3 C6.95 3 11.9 3 17 3 C17 3.33 17 3.66 17 4 C14.37438891 4.08074203 11.75124324 4.1403623 9.125 4.1875 C8.00544922 4.22520508 8.00544922 4.22520508 6.86328125 4.26367188 C4.6953125 4.29296875 4.6953125 4.29296875 1 4 C0.34 3.01 -0.32 2.02 -1 1 C-0.67 0.67 -0.34 0.34 0 0 Z " fill="#1671AF" transform="translate(94,122)"/>
<path d="M0 0 C0.93423645 3.01031744 1.04449911 3.86650268 0 7 C-1.65 6.67 -3.3 6.34 -5 6 C-3.35 4.02 -1.7 2.04 0 0 Z " fill="#0776B9" transform="translate(32,73)"/>
<path d="M0 0 C1.32 0 2.64 0 4 0 C3 3 3 3 0 5 C-0.99 4.67 -1.98 4.34 -3 4 C-1.75 2 -1.75 2 0 0 Z " fill="#8EB855" transform="translate(51,18)"/>
<path d="M0 0 C1.98 0.495 1.98 0.495 4 1 C3.67 1.99 3.34 2.98 3 4 C0.9375 4.6875 0.9375 4.6875 -1 5 C-0.67 3.35 -0.34 1.7 0 0 Z " fill="#89BA53" transform="translate(9,48)"/>
<path d="M0 0 C1.32 0 2.64 0 4 0 C3.49396008 2.16874252 3.00016187 3.99967627 2 6 C1.34 6 0.68 6 0 6 C0 4.02 0 2.04 0 0 Z " fill="#96BD57" transform="translate(60,9)"/>
<path d="M0 0 C1.65 0 3.3 0 5 0 C5.66 1.65 6.32 3.3 7 5 C2.25 3.125 2.25 3.125 0 2 C0 1.34 0 0.68 0 0 Z " fill="#89B457" transform="translate(102,48)"/>
<path d="M0 0 C3 0 3 0 7 1 C3.04 2.98 3.04 2.98 -1 5 C-0.67 3.35 -0.34 1.7 0 0 Z " fill="#8DB64D" transform="translate(15,45)"/>
</svg>
